<svg width="769" height="199" viewBox="0 0 769 199" fill="none" xmlns="http://www.w3.org/2000/svg">
<path fill-rule="evenodd" clip-rule="evenodd" d="M217.64 124.28L238.898 74.355H248.93L270.198 124.28H258.784L254.254 113.15H233.306L228.771 124.28H217.64ZM237.174 103.532H250.344L243.775 87.4564L237.174 103.532ZM297.631 124.28V74.6965H335.385V84.6238H308.525V95.1607H332.179V105.088H308.525V124.28H297.631ZM363.905 124.28V74.6965H401.665V84.6238H374.8V95.1607H398.449V105.088H374.8V124.28H363.905ZM464.797 123.098C461.491 124.469 457.975 125.142 454.244 125.142C450.518 125.142 447.002 124.48 443.718 123.135C440.438 121.8 437.648 119.987 435.362 117.69C433.081 115.404 431.289 112.687 429.965 109.55C428.656 106.412 427.994 103.107 427.994 99.6277V99.4805C427.994 96.0015 428.656 92.6959 429.991 89.5428C431.31 86.4053 433.128 83.6778 435.43 81.3655C437.748 79.0637 440.543 77.2296 443.833 75.8895C447.128 74.5441 450.644 73.8557 454.386 73.8557C459.368 73.8557 463.866 75.0014 467.903 77.2927C471.939 79.5735 475.076 82.6531 477.304 86.5315C479.554 90.4151 480.662 94.6929 480.662 99.3491V99.4805C480.662 102.965 480 106.276 478.655 109.434C477.32 112.571 475.502 115.299 473.189 117.606C470.882 119.913 468.092 121.742 464.797 123.098ZM446.634 112.96C448.947 114.374 451.532 115.083 454.386 115.083C457.245 115.083 459.815 114.39 462.106 112.987C464.408 111.594 466.179 109.723 467.414 107.363C468.67 105.02 469.285 102.429 469.285 99.6277V99.4805C469.285 95.1764 467.866 91.503 465.017 88.4707C462.164 85.4384 458.58 83.9248 454.244 83.9248C451.39 83.9248 448.815 84.6238 446.54 86.0007C444.248 87.3828 442.488 89.2485 441.237 91.5976C440.002 93.9572 439.372 96.5323 439.372 99.3491V99.4805C439.372 102.303 440.007 104.888 441.274 107.274C442.551 109.644 444.333 111.531 446.634 112.96V112.96ZM534.035 125.142C530.23 125.142 526.72 124.501 523.472 123.203C520.235 121.921 517.491 120.134 515.232 117.879C512.967 115.63 511.196 112.929 509.919 109.77C508.647 106.622 508 103.249 508 99.6277V99.4805C508 96.0015 508.657 92.6959 509.971 89.5428C511.29 86.4053 513.088 83.6778 515.347 81.3655C517.618 79.0637 520.377 77.2296 523.614 75.8895C526.846 74.5441 530.304 73.8557 533.972 73.8557C538.26 73.8557 541.881 74.4128 544.861 75.5216C547.83 76.6305 550.7 78.328 553.438 80.6455L546.595 88.9437C544.488 87.2094 542.486 85.9429 540.557 85.1388C538.639 84.3242 536.326 83.9248 533.62 83.9248C529.679 83.9248 526.326 85.4384 523.54 88.4602C520.771 91.482 519.378 95.1029 519.378 99.3491V99.4805C519.378 104.026 520.781 107.789 523.603 110.753C526.41 113.728 530.01 115.21 534.387 115.21C538.434 115.21 541.855 114.222 544.661 112.24V105.156H533.694V95.7493H555.23V117.254C549.055 122.52 541.992 125.142 534.035 125.142V125.142ZM581.259 124.28L602.517 74.355H612.549L633.817 124.28H622.408L617.873 113.15H596.925L592.39 124.28H581.259ZM600.793 103.532H613.963L607.389 87.4564L600.793 103.532ZM666.427 124.28V84.7552H651.36V74.6965H692.409V84.7552H677.326V124.28H666.427ZM753.113 123.098C749.812 124.469 746.291 125.142 742.56 125.142C738.834 125.142 735.313 124.48 732.034 123.135C728.754 121.8 725.969 119.987 723.678 117.69C721.397 115.404 719.605 112.687 718.286 109.55C716.972 106.412 716.315 103.107 716.315 99.6277V99.4805C716.315 96.0015 716.972 92.6959 718.307 89.5428C719.631 86.4053 721.444 83.6778 723.746 81.3655C726.058 79.0637 728.854 77.2296 732.149 75.8895C735.444 74.5441 738.96 73.8557 742.702 73.8557C747.679 73.8557 752.182 75.0014 756.213 77.2927C760.255 79.5735 763.392 82.6531 765.62 86.5315C767.864 90.4151 768.973 94.6929 768.973 99.3491V99.4805C768.973 102.965 768.316 106.276 766.966 109.434C765.631 112.571 763.818 115.299 761.5 117.606C759.204 119.913 756.408 121.742 753.113 123.098V123.098ZM734.95 112.96C737.263 114.374 739.848 115.083 742.702 115.083C745.556 115.083 748.131 114.39 750.422 112.987C752.719 111.594 754.49 109.723 755.735 107.363C756.986 105.02 757.595 102.429 757.595 99.6277V99.4805C757.595 95.1764 756.182 91.503 753.339 88.4707C750.485 85.4384 746.896 83.9248 742.56 83.9248C739.706 83.9248 737.131 84.6238 734.856 86.0007C732.559 87.3828 730.804 89.2485 729.553 91.5976C728.318 93.9572 727.693 96.5323 727.693 99.3491V99.4805C727.693 102.303 728.329 104.888 729.59 107.274C730.862 109.644 732.643 111.531 734.95 112.96" fill="#332C2B"/>
<path fill-rule="evenodd" clip-rule="evenodd" d="M83.6784 128.263V70.7961C70.5297 72.9088 58.9891 83.8293 58.9891 99.5163C58.9891 114.084 69.7046 126.145 83.6784 128.263Z" fill="#C9935C"/>
<path fill-rule="evenodd" clip-rule="evenodd" d="M92.4469 128.279C115.344 124.978 125.792 96.1161 108.628 78.9523C103.867 74.191 98.2067 71.5581 92.4469 70.7173V128.279C109.259 124.978 116.937 96.1161 104.329 78.9523C100.834 74.191 96.6774 71.5581 92.4469 70.7173C111.476 75.4208 111.839 123.565 92.4469 128.279Z" fill="#996632"/>
<path fill-rule="evenodd" clip-rule="evenodd" d="M57.7046 76.939L27.1977 59.3075V54.4043L79.4616 24.2337C80.6966 25.2952 82.126 26.1308 83.6868 26.6826V61.9089C73.1867 63.1281 63.8376 68.6935 57.7046 76.939ZM92.4579 61.9089V26.6826C94.024 26.1308 95.4482 25.2952 96.6832 24.2337L148.947 54.4043V59.3075L118.44 76.939C112.302 68.6987 102.995 63.1281 92.4579 61.9089ZM166.316 69.3241C180.206 64.4419 176.742 43.6467 161.933 43.6467C158.648 43.6467 155.637 44.8502 153.325 46.8314L101.061 16.6555C102.58 8.56762 96.3889 0.999995 88.0697 0.999995C79.7559 0.999995 73.5651 8.56762 75.0839 16.6555L22.8252 46.8314C14.3379 39.5371 1 45.5229 1 56.8533C1 62.6131 4.68922 67.5163 9.8289 69.3241V129.676C-4.05559 134.558 -0.592354 155.353 14.2118 155.353C17.5016 155.353 20.5077 154.15 22.8252 152.163L75.0892 182.339C73.5651 190.448 79.7769 198 88.0697 198C96.3679 198 102.585 190.448 101.061 182.339L153.325 152.163C161.807 159.458 175.15 153.472 175.15 142.141C175.15 136.382 171.461 131.478 166.316 129.676V69.3241ZM122.823 84.5066L153.325 66.8804C154.56 67.942 155.989 68.7723 157.55 69.3241V129.676C155.989 130.222 154.56 131.058 153.325 132.12L122.818 114.488C126.948 104.955 126.948 94.0398 122.823 84.5066V84.5066ZM83.6868 128.241C60.3113 124.704 50.6205 95.8266 67.5163 78.9203C71.7941 74.6477 77.4067 71.6942 83.6868 70.7535V128.241ZM92.4579 128.241V70.7535C115.886 74.2956 125.498 103.2 108.628 120.074C104.351 124.347 98.738 127.301 92.4579 128.241V128.241ZM118.44 122.056L148.947 139.693V144.59L96.6832 174.766C95.4534 173.705 94.024 172.864 92.4579 172.317V137.086C102.969 135.867 112.307 130.307 118.44 122.056V122.056ZM22.82 66.8804L53.327 84.5119C49.1963 94.045 49.2016 104.96 53.3217 114.493L22.82 132.12C21.585 131.053 20.1608 130.222 18.6 129.676V69.3241C20.1608 68.7723 21.585 67.9367 22.82 66.8804V66.8804ZM27.1977 139.693L57.6941 122.061C63.8218 130.296 73.1447 135.872 83.6868 137.086V172.317C82.126 172.864 80.6966 173.705 79.4616 174.766L27.1977 144.59V139.693Z" fill="#333333"/>
<path d="M57.7046 76.939L27.1977 59.3075V54.4043L79.4616 24.2337C80.6966 25.2952 82.126 26.1308 83.6868 26.6826V61.9089C73.1867 63.1281 63.8376 68.6935 57.7046 76.939ZM92.4579 61.9089V26.6826C94.024 26.1308 95.4482 25.2952 96.6832 24.2337L148.947 54.4043V59.3075L118.44 76.939C112.302 68.6987 102.995 63.1281 92.4579 61.9089ZM166.316 69.3241C180.206 64.4419 176.742 43.6467 161.933 43.6467C158.648 43.6467 155.637 44.8502 153.325 46.8314L101.061 16.6555C102.58 8.56763 96.3889 0.999991 88.0697 0.999991C79.7559 0.999991 73.5651 8.56763 75.0839 16.6555L22.8252 46.8314C14.3379 39.5371 1 45.5229 1 56.8533C1 62.6131 4.68922 67.5163 9.8289 69.3241V129.676C-4.05559 134.558 -0.592355 155.353 14.2118 155.353C17.5016 155.353 20.5077 154.15 22.8252 152.163L75.0892 182.339C73.5651 190.448 79.7769 198 88.0697 198C96.3679 198 102.585 190.448 101.061 182.339L153.325 152.163C161.807 159.458 175.15 153.472 175.15 142.141C175.15 136.382 171.461 131.478 166.316 129.676V69.3241ZM122.823 84.5066L153.325 66.8804C154.56 67.942 155.989 68.7723 157.55 69.3241V129.676C155.989 130.222 154.56 131.058 153.325 132.12L122.818 114.488C126.948 104.955 126.948 94.0398 122.823 84.5066ZM83.6868 128.241C60.3113 124.704 50.6205 95.8266 67.5163 78.9203C71.7941 74.6477 77.4067 71.6942 83.6868 70.7535V128.241ZM92.4579 128.241V70.7535C115.886 74.2956 125.498 103.2 108.628 120.074C104.351 124.347 98.738 127.301 92.4579 128.241ZM118.44 122.056L148.947 139.692V144.59L96.6832 174.766C95.4534 173.705 94.024 172.864 92.4579 172.317V137.086C102.969 135.867 112.307 130.307 118.44 122.056ZM22.82 66.8804L53.327 84.5119C49.1963 94.045 49.2016 104.96 53.3217 114.493L22.82 132.12C21.585 131.053 20.1608 130.222 18.6 129.676V69.3241C20.1608 68.7723 21.585 67.9367 22.82 66.8804ZM27.1977 139.692L57.6941 122.061C63.8218 130.296 73.1447 135.872 83.6868 137.086V172.317C82.126 172.864 80.6966 173.705 79.4616 174.766L27.1977 144.59V139.692Z" stroke="#332C2B" stroke-width="0.216" stroke-miterlimit="22.926"/>
</svg>
